<svg xmlns="http://www.w3.org/2000/svg" viewBox="0 0 570 145.4">
  <g fill="#000" fill-rule="evenodd">
    <path d="M558.6 11.4V134H11.4V11.4h547.2M570 0H0v145.4h570V0z"/>
    <path d="M392.2 93.3c1.7 1.7 2.6 3.8 2.6 6.5s-.8 4.9-2.5 6.6c-1.7 1.7-3.9 2.6-6.6 2.6-2.7 0-4.8-.8-6.5-2.5-1.7-1.7-2.6-3.9-2.6-6.6 0-2.7.8-4.8 2.5-6.5 1.7-1.7 3.8-2.6 6.5-2.6 2.7.1 4.9.9 6.6 2.5zM104.7 36.4h58.2v18.2h-38v10.1h34.4v16.8h-34.4v27.6h-20.1V36.4zm65.4 0H229v18.2h-39.3v10.2h34.9v16.7h-34.9v10.2H229v17.4h-58.9V36.4zm125.1 72.7h-58.9V91.6h38.5V81.4h-34.9V64.7h34.9V54.5h-38.5V36.4h58.9v72.7zm7.2-72.7h34.4c5.6 0 10.4.7 14.2 2.1 3.9 1.4 7 3.3 9.5 5.8 4.3 4.2 6.4 9.8 6.4 16.9v.2c0 5.6-1.4 10.2-4.1 13.9-2.7 3.7-6.3 6.5-10.9 8.4l17.3 25.3h-23.3l-14.6-22h-8.8v22h-20.1V36.4zm33.5 34.8c3.5 0 6.1-.8 8-2.3 1.9-1.6 2.8-3.7 2.8-6.3v-.2c0-2.9-1-5.1-2.9-6.5-1.9-1.4-4.6-2.1-8-2.1h-13.2v17.4h13.3zm66.2-34.8h19l30.2 38.4V36.4h20v72.7h-17.8L422 69.2v39.9h-20V36.4zm76.3 0h20.1v55h35.1v17.7h-55.3V36.4zM69.1 109.3c-6.3 0-12.2-1-17.8-2.9-5.6-2-10.6-4.9-14.9-8.8l10.8-13c7 5.6 14.6 8.4 22.7 8.4 2.6 0 4.6-.4 5.9-1.3 1.4-.8 2-2 2-3.6V88c0-.7-.2-1.4-.5-2-.3-.6-.9-1.1-1.8-1.7-.9-.5-2.1-1.1-3.6-1.6s-3.4-1-5.8-1.6c-3.7-.9-7.2-1.8-10.4-2.9-3.2-1-6-2.4-8.3-4-2.4-1.6-4.2-3.7-5.6-6.1-1.4-2.4-2-5.5-2-9.1 0-3.3.6-6.3 1.8-9 1.2-2.7 3-5.1 5.4-7.1 2.4-2 5.2-3.6 8.5-4.7s7.1-1.7 11.3-1.7c6 0 11.3.8 16 2.4 4.7 1.6 8.9 3.9 12.7 7l-9.7 13.8c-3.2-2.3-6.5-4-9.8-5.2-3.4-1.2-6.6-1.8-9.7-1.8-2.3 0-4.1.4-5.2 1.3-1.2.9-1.7 1.9-1.7 3.2v.2c0 .8.2 1.5.5 2.1.4.6 1 1.2 1.9 1.7s2.1 1 3.7 1.5 3.5 1 5.9 1.6c4 .9 7.6 1.9 10.8 3.1 3.2 1.2 6 2.6 8.2 4.3 2.3 1.7 4 3.7 5.2 6.1 1.2 2.4 1.8 5.2 1.8 8.5v.2c0 3.6-.7 6.8-2 9.6-1.4 2.8-3.3 5.2-5.7 7.2-2.5 2-5.4 3.5-8.9 4.5s-7.4 1.5-11.7 1.5z"/>
  </g>
</svg>
